<?xml version="1.0" encoding="UTF-8"?>
<svg width="36px" height="36px" viewBox="0 0 36 36" version="1.1" xmlns="http://www.w3.org/2000/svg" xmlns:xlink="http://www.w3.org/1999/xlink">
    <title>ATT Globe</title>
    <defs></defs>
    <g id="Symbols" stroke="none" stroke-width="1" fill="none" fill-rule="evenodd">
        <g id="ATT-Globe">
            <g>
                <path d="M24.8940972,7.76232639 C23.0203125,6.63888889 20.8453125,6 18.5,6 C16.1381944,6 13.8977431,6.66180556 12.0175347,7.81475694 C11.4539931,8.16215278 11.1364583,8.44045139 11.1364583,8.79756944 C11.1364583,9.85208333 13.5996528,10.9855903 17.9692708,10.9855903 C22.2932292,10.9855903 25.6475694,9.74392361 25.6475694,8.5484375 C25.6475694,8.26354167 25.3986111,8.06354167 24.8940972,7.76232639 M26.7546875,9.15121528 C26.8069444,9.23315972 26.8333333,9.32152778 26.8333333,9.43958333 C26.8333333,10.8282986 22.5847222,13.2850694 15.8204861,13.2850694 C10.8513889,13.2850694 9.92083333,11.4409722 9.92083333,10.2680556 C9.92083333,9.84878472 10.0814236,9.41961806 10.4352431,8.98402778 C10.4548611,8.9578125 10.4385417,8.94826389 10.415625,8.96770833 C9.7703125,9.51475694 9.17743056,10.1305556 8.65659722,10.7956597 C8.4078125,11.1100694 8.25364583,11.3885417 8.25364583,11.5555556 C8.25364583,13.9861111 14.3463542,15.7482639 20.0428819,15.7482639 C26.1126736,15.7482639 28.8215278,13.7668403 28.8215278,12.0241319 C28.8215278,11.4015625 28.5791667,11.0380208 27.9600694,10.3338542 C27.5571181,9.87517361 27.1770833,9.50190972 26.7743056,9.13472222 C26.7546875,9.11840278 26.7416667,9.13159722 26.7546875,9.15121528 M7.20538194,13.1376736 C6.83871528,13.8649306 6.43246528,15.0934028 6.31111111,15.7288194 C6.25885417,16.0006944 6.28159722,16.1315972 6.37673611,16.3345486 C7.14322917,17.9628472 11.0217014,20.5668403 20.0690972,20.5668403 C25.5885417,20.5668403 29.8762153,19.2107639 30.5708333,16.7345486 C30.6986111,16.2789931 30.7050347,15.7977431 30.5411458,15.1491319 C30.3579861,14.425 30.0140625,13.5800347 29.7223958,12.9869792 C29.7126736,12.9675347 29.6961806,12.9706597 29.6994792,12.9935764 C29.8076389,16.2395833 20.7569444,18.3328125 16.190625,18.3328125 C11.2444444,18.3328125 7.11701389,16.3609375 7.11701389,13.8715278 C7.11701389,13.6324653 7.16614583,13.3932292 7.22847222,13.1442708 C7.23489583,13.1213542 7.21527778,13.1180556 7.20538194,13.1376736 M15.9876736,23.5119792 C9.59010417,23.5119792 6.57326389,20.5309028 6.02638889,18.4967014 C6.01961806,18.4671875 6,18.4739583 6,18.4998264 C6,19.1845486 6.06875,20.0689236 6.18663194,20.6553819 C6.24236111,20.9402778 6.475,21.3892361 6.815625,21.7461806 C8.36510417,23.3612847 12.2272569,25.6246528 18.9159722,25.6246528 C28.0289931,25.6246528 30.1123264,22.5880208 30.5378472,21.5890625 C30.8427083,20.8748264 31,19.5840278 31,18.4998264 C31,18.2378472 30.9934028,18.0282986 30.9833333,17.821875 C30.9833333,17.7892361 30.9638889,17.7859375 30.9572917,17.81875 C30.5019097,20.2621528 22.7157986,23.5119792 15.9876736,23.5119792 M19.3484375,29.0116319 C22.4243056,29.0116319 25.8046875,28.1730903 27.8256944,26.5121528 C28.3795139,26.0604167 28.9067708,25.4574653 29.3784722,24.6484375 C29.6503472,24.1831597 29.915625,23.6296875 30.1317708,23.0859375 C30.1416667,23.0598958 30.1253472,23.0467014 30.1057292,23.0760417 C28.2253472,25.8440972 22.7814236,27.5703125 17.1602431,27.5703125 C13.1869792,27.5703125 8.91197917,26.2994792 7.23836806,23.8720486 C7.221875,23.8491319 7.20538194,23.8588542 7.21527778,23.8852431 C8.77447917,27.2001736 13.5045139,29.0116319 19.3484375,29.0116319 M10.8348958,28.3729167 C12.9543403,30.0140625 15.6142361,31 18.5,31 C21.6578125,31 24.5371528,29.8272569 26.7348958,27.9012153 C26.7611111,27.878125 26.7480903,27.8618056 26.7220486,27.878125 C25.7359375,28.5366319 22.9253472,29.9746528 18.5,29.9746528 C14.6543403,29.9746528 12.2237847,29.1163194 10.8513889,28.35 C10.825,28.3368056 10.8152778,28.3565972 10.8348958,28.3729167" id="Fill-1" fill="#000000"></path>
                <rect id="Rectangle-2" x="0" y="0" width="36" height="36"></rect>
            </g>
        </g>
    </g>
</svg>