<?xml version="1.0" encoding="UTF-8" standalone="no"?>
<svg
   xmlns:dc="http://purl.org/dc/elements/1.1/"
   xmlns:cc="http://creativecommons.org/ns#"
   xmlns:rdf="http://www.w3.org/1999/02/22-rdf-syntax-ns#"
   xmlns:svg="http://www.w3.org/2000/svg"
   xmlns="http://www.w3.org/2000/svg"
   version="1.1"
   viewBox="0 0 38 38"
   data-name="Layer 1"
   id="Layer_1">
  <metadata
     id="metadata5627">
    <rdf:RDF>
      <cc:Work
         rdf:about="">
        <dc:format>image/svg+xml</dc:format>
        <dc:type
           rdf:resource="http://purl.org/dc/dcmitype/StillImage" />
        <dc:title>calendar</dc:title>
      </cc:Work>
    </rdf:RDF>
  </metadata>
  <defs
     id="defs5616">
    <style
       id="style5618">.cls-1{fill:none;}</style>
  </defs>
  <title
     id="title5620">calendar</title>
  <rect
     style="fill:none"
     y="-20"
     x="0"
     id="rect5622"
     height="24"
     width="24"
     class="cls-1" />
  <path
     id="path3561"
     d="m 36.123569,5.2723435 -4.525399,0 0,-1.86559 c 0,-1.066051 -0.9317,-1.998846 -1.9965,-1.86559 -1.0648,0 -1.863399,0.932795 -1.863399,1.998847 l 0,1.732333 -17.169897,0 0,-1.86559 c 0,-1.066051 -0.9317007,-1.998846 -1.9965005,-1.86559 -1.0648,0 -1.8633992,0.932795 -1.8633992,1.998847 l 0,1.732333 -4.5253989,0 c -0.7985998,0 -1.46409976,0.666282 -1.46409976,1.465821 l 0,29.1831545 c 0,0.799538 0.66549996,1.46582 1.46409976,1.46582 l 33.8073936,0 c 0.7986,0 1.4641,-0.666282 1.4641,-1.46582 l 0,-29.1831545 c 0,-0.799539 -0.532399,-1.465821 -1.331,-1.465821 z M 9.7697733,34.188985 c 0,0.266512 -0.266199,0.533025 -0.5324,0.533025 l -5.3239982,0 c -0.2662,0 -0.5323999,-0.266513 -0.5323999,-0.533025 l 0,-5.063744 c 0,-0.266513 0.2661999,-0.533025 0.5323999,-0.533025 l 5.3239982,0 c 0.266201,0 0.5324,0.266512 0.5324,0.533025 l 0,5.063744 z m 0,-8.128641 c 0,0.266512 -0.266199,0.533025 -0.5324,0.533025 l -5.3239982,0 c -0.2662,0 -0.5323999,-0.266513 -0.5323999,-0.533025 l 0,-5.197 c 0,-0.266513 0.2661999,-0.533027 0.5323999,-0.533027 l 5.3239982,0 c 0.266201,0 0.5324,0.266514 0.5324,0.533027 l 0,5.197 z M 8.5718735,9.1367805 c -1.0648,0 -1.8633992,-0.799539 -1.8633992,-1.865591 l 3.8598997,0 c 0,1.066052 -0.7986007,1.865591 -1.9965005,1.865591 z M 18.155073,34.188985 c 0,0.266512 -0.2662,0.533025 -0.5324,0.533025 l -5.324,0 c -0.266199,0 -0.532399,-0.266513 -0.532399,-0.533025 l 0,-5.063744 c 0,-0.266513 0.2662,-0.533025 0.532399,-0.533025 l 5.324,0 c 0.2662,0 0.5324,0.266512 0.5324,0.533025 l 0,5.063744 z m 0,-8.128641 c 0,0.266512 -0.2662,0.533025 -0.5324,0.533025 l -5.324,0 c -0.266199,0 -0.532399,-0.266513 -0.532399,-0.533025 l 0,-5.197 c 0,-0.266513 0.2662,-0.533027 0.532399,-0.533027 l 5.324,0 c 0.2662,0 0.5324,0.266514 0.5324,0.533027 l 0,5.197 z m 8.385298,8.128641 c 0,0.266512 -0.2662,0.533025 -0.5324,0.533025 l -5.323998,0 c -0.266201,0 -0.532401,-0.266513 -0.532401,-0.533025 l 0,-5.063744 c 0,-0.266513 0.2662,-0.533025 0.532401,-0.533025 l 5.323998,0 c 0.2662,0 0.5324,0.266512 0.5324,0.533025 l 0,5.063744 z m 0,-8.128641 c 0,0.266512 -0.2662,0.533025 -0.5324,0.533025 l -5.323998,0 c -0.266201,0 -0.532401,-0.266513 -0.532401,-0.533025 l 0,-5.197 c 0,-0.266513 0.2662,-0.533027 0.532401,-0.533027 l 5.323998,0 c 0.2662,0 0.5324,0.266514 0.5324,0.533027 l 0,5.197 z m 0,-8.261898 c 0,0.266513 -0.2662,0.533026 -0.5324,0.533026 l -5.323998,0 c -0.266201,0 -0.532401,-0.266513 -0.532401,-0.533026 l 0,-5.063743 c 0,-0.266514 0.2662,-0.533026 0.532401,-0.533026 l 5.323998,0 c 0.2662,0 0.5324,0.266512 0.5324,0.533026 l 0,5.063743 z m 1.1979,-10.5272565 3.859899,0 c 0,1.066052 -0.9317,1.998847 -1.9965,1.865591 -1.0648,0 -1.863399,-0.799539 -1.863399,-1.865591 z M 34.79257,34.188985 c 0,0.266512 -0.2662,0.533025 -0.532401,0.533025 l -5.323999,0 c -0.266199,0 -0.532399,-0.266513 -0.532399,-0.533025 l 0,-5.063744 c 0,-0.266513 0.2662,-0.533025 0.532399,-0.533025 l 5.323999,0 c 0.266201,0 0.532401,0.266512 0.532401,0.533025 l 0,5.063744 z m 0,-8.128641 c 0,0.266512 -0.2662,0.533025 -0.532401,0.533025 l -5.323999,0 c -0.266199,0 -0.532399,-0.266513 -0.532399,-0.533025 l 0,-5.197 c 0,-0.266513 0.2662,-0.533027 0.532399,-0.533027 l 5.323999,0 c 0.266201,0 0.532401,0.266514 0.532401,0.533027 l 0,5.197 z m 0,-8.261898 c 0,0.266513 -0.2662,0.533026 -0.532401,0.533026 l -5.323999,0 c -0.266199,0 -0.532399,-0.266513 -0.532399,-0.533026 l 0,-5.063743 c 0,-0.266514 0.2662,-0.533026 0.532399,-0.533026 l 5.323999,0 c 0.266201,0 0.532401,0.266512 0.532401,0.533026 l 0,5.063743 z"
     class="st1" />
</svg>
