<?xml version="1.0" encoding="UTF-8" standalone="no"?>
<svg
   xmlns:dc="http://purl.org/dc/elements/1.1/"
   xmlns:cc="http://creativecommons.org/ns#"
   xmlns:rdf="http://www.w3.org/1999/02/22-rdf-syntax-ns#"
   xmlns:svg="http://www.w3.org/2000/svg"
   xmlns="http://www.w3.org/2000/svg"
   viewBox="0 0 36 26"
   xml:space="preserve"
   version="1.1"
   id="svg3336"><metadata
     id="metadata3342"><rdf:RDF><cc:Work
         rdf:about=""><dc:format>image/svg+xml</dc:format><dc:type
           rdf:resource="http://purl.org/dc/dcmitype/StillImage" /><dc:title></dc:title></cc:Work></rdf:RDF></metadata><defs
     id="defs3340"></defs><g
     transform="matrix(1.25,0,0,-1.25,0,26)"
     id="g3344"><g
       id="g3976"><g
         clip-path="url(#clipPath3980)"
         id="g3978"><g
           transform="translate(15.355108,9.1123205)"
           id="g3984"><path
             id="path3986"
             d="m 0,0 c -0.001,-3.049 -2.483,-5.529 -5.534,-5.529 -3.049,0 -5.529,2.48 -5.529,5.529 0,3.05 2.48,5.533 5.529,5.533 C -2.483,5.533 -0.001,3.05 0,0 m 10.33,4.655 c 0,-0.489 -0.399,-0.89 -0.89,-0.89 l -4.791,0 c -0.489,0 -0.887,0.401 -0.887,0.89 L 3.749,5.69 c 0.056,0.436 0.425,0.777 0.877,0.777 l 4.833,0 c 0.453,0 0.823,-0.341 0.878,-0.777 L 10.33,4.655 Z M -5.534,-7.029 c -3.876,0 -7.029,3.153 -7.029,7.029 0,3.878 3.153,7.033 7.029,7.033 C -1.656,7.033 1.499,3.878 1.5,0 1.499,-3.876 -1.656,-7.029 -5.534,-7.029 m 17.316,16.335 -2.125,0 0,0.703 c 0,0.873 -0.694,1.577 -1.565,1.577 l -4.386,0 c -0.871,0 -1.591,-0.704 -1.591,-1.577 l 0,-0.703 -15.831,0 c -0.818,0 -1.481,-0.661 -1.481,-1.483 l 0,-15.47 c 0,-0.82 0.66,-1.481 1.481,-1.481 l 25.498,0 c 0.817,0 1.482,0.661 1.482,1.481 l 0,15.47 c 0,0.822 -0.665,1.483 -1.482,1.483" /></g></g></g></g></svg>