<svg id="Layer_1" data-name="Layer 1" xmlns="http://www.w3.org/2000/svg" viewBox="0 0 44 44">
    <defs>
        <style>.cls-1{fill:none;}</style>
    </defs>
    <title>Clock</title>
    <rect style="fill:none" class="cls-1" width="24" height="24"/>
  <path
     class="st1"
     d="m 16.78226,28.686441 c -0.352204,0 -0.821808,-0.118644 -1.05661,-0.474576 -0.587006,-0.593221 -0.587006,-1.542374 0,-2.135593 l 4.578645,-4.389831 0,-7.593221 c 0,-0.830508 0.704406,-1.542372 1.526214,-1.542372 0.821807,0 1.526214,0.711864 1.526214,1.542372 l 0,8.186441 c 0,0.355933 -0.117401,0.830509 -0.469604,1.067797 l -5.048248,4.864407 c -0.234803,0.355932 -0.587006,0.474576 -1.056611,0.474576 z M 21.830509,9.2288136 c -7.161469,0 -12.9141245,5.8135594 -12.9141245,13.0508474 0,7.237288 5.7526555,13.050848 12.9141245,13.050848 7.161468,0 12.914124,-5.81356 12.914124,-13.050848 0,-7.237288 -5.752656,-13.0508474 -12.914124,-13.0508474 m 0,-4.7457627 c 9.744294,0 17.610169,7.9491531 17.610169,17.7966101 0,9.847458 -7.865875,17.796611 -17.610169,17.796611 -9.744293,0 -17.6101697,-7.949153 -17.6101697,-17.796611 0,-9.847457 7.8658767,-17.7966101 17.6101697,-17.7966101 l 0,0 z"
     id="path3618"
     />
</svg>