<svg id="Layer_1" data-name="Layer 1" xmlns="http://www.w3.org/2000/svg" viewBox="0 0 44 44">
    <defs>
        <style>.cls-1{fill:none;}</style>
    </defs>
    <title>Close</title>
    <rect style="fill:none" class="cls-1" width="44" height="24"/>
  <path
     class="st1"
     d="M 23.564293,18.195814 34.599521,7.1605815 C 36.148598,5.611504 36.130939,3.1573146 34.60635,1.6327245 33.07113,0.09750491 30.606854,0.11119088 29.078494,1.639552 L 18.043265,12.674784 7.0080371,1.639552 C 5.4589599,0.09047439 3.0047715,0.10813408 1.4801818,1.6327245 c -1.5352191,1.5352193 -1.52153312,3.9994962 0.00683,5.527857 L 12.522238,18.195814 1.4870093,29.231045 c -1.54907709,1.549078 -1.53141741,4.003267 -0.00683,5.527858 1.5352189,1.535219 3.999495,1.521533 5.5278553,-0.0069 L 18.043263,23.7168 29.078493,34.752032 c 1.549076,1.549077 4.003264,1.531417 5.527854,0.0069 1.53522,-1.53522 1.521533,-3.999496 -0.0068,-5.527858 L 23.56429,18.195814 Z"
     id="path3618b"
     />
</svg>