<svg id="Layer_1" data-name="Layer 1" xmlns="http://www.w3.org/2000/svg" viewBox="0 0 36 36"><defs><style>.cls-1{fill:none;}</style></defs><title>cog</title><rect style="fill:none" class="cls-1" width="36" height="36"/><path d="M28.18,18.94c0-.16,0-0.31,0-0.47s0-.28,0-0.52,0-.28,0-0.42,0-.3,0-0.45a18.15,18.15,0,0,0,2.64-1.54A0.57,0.57,0,0,0,31,14.94a12.28,12.28,0,0,0-.6-1.92A0.57,0.57,0,0,0,30,12.67a16.34,16.34,0,0,0-3.17.11v0a5.51,5.51,0,0,0-.5-0.75,7.25,7.25,0,0,0-.58-0.73,18.78,18.78,0,0,0,1.22-2.8,0.57,0.57,0,0,0-.17-0.62,12.58,12.58,0,0,0-1.61-1.19,0.57,0.57,0,0,0-.6,0A16.27,16.27,0,0,0,22,8.61l-0.63-.24-0.27-.1C20.88,8.19,20.58,8.1,20.27,8a18.91,18.91,0,0,0-.66-3,0.57,0.57,0,0,0-.5-0.4,13,13,0,0,0-2,0,0.57,0.57,0,0,0-.49.36,16.35,16.35,0,0,0-.87,3c-0.32.07-.63,0.16-0.93,0.26l-0.24.09L14,8.6a18,18,0,0,0-2.28-2,0.58,0.58,0,0,0-.62,0A13.22,13.22,0,0,0,9.53,7.62l-0.1.07a0.57,0.57,0,0,0-.2.6,16.63,16.63,0,0,0,1.08,3,6.77,6.77,0,0,0-.56.71,5.91,5.91,0,0,0-.52.78h0a19.24,19.24,0,0,0-3-.3,0.56,0.56,0,0,0-.55.37L5.58,13A13,13,0,0,0,5,14.73a0.58,0.58,0,0,0,.19.56,15.88,15.88,0,0,0,2.62,1.76c0,0.16,0,.32,0,0.48s0,0.28,0,.51,0,0.28,0,.42,0,0.31,0,.46a18.15,18.15,0,0,0-2.63,1.54,0.57,0.57,0,0,0-.23.59A12.33,12.33,0,0,0,5.56,23a0.58,0.58,0,0,0,.5.36,16.59,16.59,0,0,0,3.16-.11l0,0a5.76,5.76,0,0,0,.49.75,7.88,7.88,0,0,0,.58.73,18.28,18.28,0,0,0-1.22,2.8,0.56,0.56,0,0,0,.17.62,12.78,12.78,0,0,0,1.61,1.19,0.58,0.58,0,0,0,.6,0A16.4,16.4,0,0,0,14,27.39l0.63,0.24,0.27,0.1c0.28,0.08.57,0.17,0.87,0.24a19,19,0,0,0,.66,3,0.57,0.57,0,0,0,.5.4c0.38,0,.76,0,1.15,0s0.57,0,.86,0A0.58,0.58,0,0,0,19.38,31a16.54,16.54,0,0,0,.88-3c0.31-.07.62-0.16,0.93-0.26l0.23-.08L22,27.4a18,18,0,0,0,2.28,2,0.58,0.58,0,0,0,.62,0,13.85,13.85,0,0,0,1.63-1.15,0.56,0.56,0,0,0,.2-0.6,17.15,17.15,0,0,0-1.08-3A7.5,7.5,0,0,0,26.25,24a6,6,0,0,0,.52-0.79h0a19.28,19.28,0,0,0,3,.3h0a0.72,0.72,0,0,0,.58-0.46A13.32,13.32,0,0,0,31,21.27a0.57,0.57,0,0,0-.19-0.56A16,16,0,0,0,28.18,18.94ZM18,23.46A5.46,5.46,0,1,1,23.46,18,5.46,5.46,0,0,1,18,23.46Z"/></svg>