<svg id="Layer_1" data-name="Layer 1" xmlns="http://www.w3.org/2000/svg" viewBox="0 0 44 44">
    <defs>
        <style>.cls-1{fill:none;}</style>
    </defs>
    <title>Cogs</title>
    <rect style="fill:none" class="cls-1" width="24" height="24"/>
  <path
     class="st1"
          d="m 26.176595,29.127485 c 0,-0.115117 0,-0.230234 0,-0.345351 0,-0.115117 0,-0.230233 0,-0.460467 0,-0.115117 0,-0.230234 0,-0.34535 0,-0.115117 0,-0.230234 0,-0.345351 0.89063,-0.34535 1.654028,-0.805818 2.417425,-1.266285 0.127233,-0.115117 0.254466,-0.34535 0.254466,-0.460467 -0.127233,-0.575584 -0.254466,-1.036051 -0.508932,-1.611635 -0.127233,-0.115117 -0.254466,-0.230234 -0.508931,-0.345351 -1.017864,0 -1.908494,0 -2.926357,0.115117 0,0 0,0 0,0 -0.127233,-0.230234 -0.254466,-0.460467 -0.508932,-0.575584 -0.127233,-0.230234 -0.381699,-0.34535 -0.508932,-0.575584 0.381699,-0.690701 0.763398,-1.496519 1.145097,-2.302336 0.127232,-0.230234 0,-0.345351 -0.127233,-0.460468 -0.508932,-0.460467 -1.017864,-0.6907 -1.526795,-1.036051 -0.127233,-0.115117 -0.381699,-0.115117 -0.508932,0 -0.763397,0.460467 -1.526795,1.036051 -2.290192,1.611635 -0.254466,-0.115116 -0.381699,-0.115116 -0.636165,-0.230233 L 19.687716,20.378607 C 19.433251,20.26349 19.178785,20.26349 18.924319,20.148373 18.797086,19.342556 18.54262,18.421621 18.288154,17.73092 c -0.127233,-0.230233 -0.254465,-0.34535 -0.508931,-0.34535 -0.636165,0 -1.272329,0 -1.781261,0 -0.254466,0 -0.381699,0.115117 -0.381699,0.34535 -0.381698,0.805818 -0.636164,1.611636 -0.763397,2.53257 -0.254466,0.115117 -0.636165,0.115117 -0.89063,0.230234 l -0.254466,0.115117 c -0.127233,0.115116 -0.381699,0.115116 -0.508932,0.230233 -0.636164,-0.575584 -1.399562,-1.151168 -2.035726,-1.611635 -0.127233,-0.115117 -0.381699,-0.115117 -0.508932,0 -0.508931,0.230234 -1.0178631,0.575584 -1.3995618,0.920934 l -0.1272329,-0.34535 c -0.1272329,0.115117 -0.2544659,0.34535 -0.1272329,0.460467 0.2544658,0.920935 0.6361645,1.726752 1.0178636,2.417453 -0.2544662,0.230234 -0.3816991,0.460468 -0.508932,0.575584 -0.1272329,0.230234 -0.3816987,0.460468 -0.5089316,0.690701 0,0 0,0 0,0 -0.8906304,-0.115117 -1.7812608,-0.230233 -2.799124,-0.230233 -0.2544658,0 -0.3816988,0.115116 -0.5089317,0.34535 l 0,0.115117 c -0.2544658,0.460467 -0.3816987,0.920934 -0.5089316,1.496518 0,0.115117 0,0.345351 0.1272329,0.460468 0.7633975,0.575584 1.5267949,1.036051 2.4174253,1.496518 0,0.115117 0,0.230234 0,0.345351 0,0.115116 0,0.230233 0,0.460467 0,0.115117 0,0.230233 0,0.34535 0,0.115117 0,0.230234 0,0.345351 -0.8906304,0.34535 -1.6540278,0.805817 -2.4174253,1.266285 -0.1272329,0.115116 -0.2544658,0.34535 -0.2544658,0.460467 0.1272329,0.575584 0.2544658,1.036051 0.5089316,1.611635 0.1272329,0.115117 0.2544658,0.230234 0.5089317,0.345351 1.0178632,0 1.9084936,0 2.9263569,-0.115117 0,0 0,0 0,0 0.1272329,0.230234 0.2544658,0.460467 0.5089316,0.575584 0.1272329,0.230234 0.3816987,0.34535 0.508932,0.575584 -0.3816991,0.690701 -0.7633978,1.496519 -1.1450966,2.302336 -0.1272329,0.230234 0,0.345351 0.127233,0.460468 0.5089316,0.460467 1.0178636,0.6907 1.5267946,1.036051 0.127233,0.115117 0.381699,0.115117 0.508932,0 0.763397,-0.460467 1.526795,-1.036051 2.290192,-1.611636 0.254466,0.115117 0.381699,0.115117 0.636165,0.230234 l 0.254465,0.115117 c 0.254466,0.115117 0.508932,0.115117 0.763398,0.230234 0.127233,0.805817 0.381699,1.726752 0.636164,2.417453 0,0.230233 0.254466,0.34535 0.508932,0.34535 0.381699,0 0.636165,0 1.017863,0 0.254466,0 0.508932,0 0.763398,0 0.254465,0 0.381698,-0.115117 0.381698,-0.34535 0.381699,-0.805818 0.636165,-1.611636 0.763398,-2.53257 0.254466,-0.115117 0.508931,-0.115117 0.89063,-0.230234 l 0.254466,-0.115117 c 0.127233,-0.115117 0.381699,-0.115117 0.508932,-0.230233 0.636164,0.575584 1.399562,1.151168 2.035726,1.726752 0.127233,0.115117 0.381699,0.115117 0.508932,0 0.508931,-0.230234 1.017863,-0.575584 1.526795,-0.920935 0.127233,-0.115116 0.254466,-0.34535 0.127233,-0.460467 -0.254466,-0.920934 -0.636165,-1.726752 -1.017864,-2.417453 0.254466,-0.230234 0.381699,-0.460467 0.508932,-0.575584 0.127233,-0.230234 0.381699,-0.460467 0.508932,-0.690701 0,0 0,0 0,0 0.89063,0.115117 1.78126,0.230234 2.799124,0.230234 l 0,0 c 0.254465,0 0.508931,-0.230234 0.508931,-0.345351 0.254466,-0.460467 0.381699,-0.920934 0.508932,-1.496518 0,-0.115117 0,-0.345351 -0.127233,-0.460468 -0.763397,-0.460467 -1.526795,-0.920934 -2.417425,-1.381401 z m -9.288003,3.568621 c -2.671891,0 -4.83485,-1.956986 -4.83485,-4.374439 0,-2.417453 2.162959,-4.374439 4.83485,-4.374439 2.671891,0 4.834851,1.956986 4.834851,4.374439 0,2.417453 -2.16296,4.374439 -4.834851,4.374439 z M 36.355227,13.586715 c 0.890631,-0.34535 1.654028,-0.690701 2.417426,-1.266285 0.127233,-0.115117 0.254465,-0.34535 0.254465,-0.460467 -0.127232,-0.690701 -0.381698,-1.381402 -0.636164,-1.841869 -0.127233,-0.1151169 -0.254466,-0.2302337 -0.381699,-0.2302337 -1.017863,-0.1151168 -1.908493,0 -2.926357,0.1151168 C 34.955665,9.6727435 34.7012,9.4425099 34.446734,9.2122763 34.192268,8.9820427 33.937802,8.8669258 33.683336,8.6366922 c 0.127233,-0.8058177 0.127233,-1.7267522 0,-2.5325698 0,-0.2302337 -0.127233,-0.3453505 -0.381698,-0.3453505 -0.636165,-0.2302331 -1.399562,-0.34535 -2.16296,-0.4604668 -0.254466,0 -0.381699,0 -0.508932,0.2302337 -0.636164,0.6907004 -1.017863,1.496518 -1.272329,2.3023357 -0.381698,0 -0.636164,0.1151168 -1.017863,0.2302337 -0.381699,0.1151168 -0.636164,0.2302336 -0.89063,0.3453504 -0.763398,-0.4604673 -1.526795,-0.9209345 -2.417425,-1.2662849 -0.127233,-0.1151169 -0.381699,0 -0.508932,0.1151168 -0.508932,0.3453504 -1.017863,0.9209345 -1.526795,1.4965185 -0.127233,0.1151168 -0.127233,0.3453505 0,0.4604673 0.381699,0.8058177 0.89063,1.6116357 1.526795,2.1872197 -0.127233,0.230233 -0.254466,0.575584 -0.254466,0.805817 0,0.345351 -0.127233,0.575584 -0.127233,0.805818 -0.89063,0.345351 -1.654028,0.690701 -2.417425,1.266285 -0.127233,0.115117 -0.254466,0.34535 -0.254466,0.460467 0.127233,0.690701 0.381699,1.381402 0.636165,1.841869 0.127233,0.115117 0.254465,0.230234 0.381698,0.230234 1.017864,0.115117 1.908494,0 2.926357,-0.115117 0.127233,0.230234 0.381699,0.460467 0.636165,0.690701 0.254466,0.230234 0.508931,0.34535 0.763397,0.575584 -0.127233,0.805818 -0.127233,1.726752 0,2.53257 0,0.230233 0.127233,0.34535 0.381699,0.34535 0.636165,0.230234 1.399562,0.345351 2.162959,0.460468 0,0 0,0 0,0 0.127233,0 0.381699,-0.115117 0.508932,-0.230234 0.636165,-0.690701 1.017863,-1.496519 1.272329,-2.302336 0.381699,0 0.636165,-0.115117 1.017863,-0.230234 0.381699,-0.115117 0.636165,-0.230234 0.890631,-0.34535 0.763397,0.460467 1.526795,0.920934 2.417425,1.266285 0.127233,0.115116 0.381699,0 0.508932,-0.115117 0.508931,-0.345351 1.017863,-0.920935 1.526795,-1.496519 0.127232,-0.115117 0.127232,-0.34535 0,-0.460467 -0.381699,-0.805818 -0.890631,-1.611635 -1.526795,-2.18722 0.127233,-0.230233 0.254465,-0.575584 0.254465,-0.805817 0.127233,-0.230234 0.127233,-0.575584 0.127233,-0.805818 z m -6.107179,2.302336 c -1.526795,0 -2.671891,-1.151168 -2.671891,-2.417453 0,-1.381401 1.272329,-2.417453 2.671891,-2.417453 1.526795,0 2.671891,1.151168 2.671891,2.417453 0.127233,1.266285 -1.145096,2.417453 -2.671891,2.417453 z"
     id="path3691"
      />
</svg>