<svg xmlns="http://www.w3.org/2000/svg" viewBox="0 0 36 36">
    <path d="M28.9 13.4h-.3c-.4-5.5-5-9.9-10.6-9.9S7.8 7.9 7.4 13.4h-.3c-.9 0-1.6.8-1.6 1.9v5.6c0 1 .7 1.9 1.6 1.9h.3c.3 4.2 3.1 7.8 7 9.2 0 .6.5 1 1.1 1h5.1c.6 0 1.1-.5 1.1-1.1v-1.5c0-.6-.5-1.1-1.1-1.1h-5.1c-.4 0-.7.2-.9.5-3-1.3-5.2-4.3-5.2-7.8v-7.9c0-4.8 3.9-8.6 8.6-8.6 4.7 0 8.6 3.8 8.6 8.5v8.4c0 .2.2.4.4.4h1.9c.9 0 1.6-.8 1.6-1.9v-5.6c0-1-.7-1.9-1.6-1.9zM16.6 21v-.6c0-.9.1-1.7.4-2.2.3-.5.8-1.1 1.6-1.6l.3-.2c.3-.2.6-.5.8-.7.2-.2.3-.5.4-.7.1-.2.1-.5.1-.8 0-.5-.2-1-.7-1.3-.4-.3-1-.5-1.7-.5-1.1 0-2.3.5-3.5 1.5l-1-1.6c.7-.6 1.4-1.1 2.3-1.4.8-.3 1.7-.5 2.6-.5 1.3 0 2.4.3 3.2 1 .8.7 1.2 1.6 1.2 2.7 0 .7-.2 1.4-.5 1.9-.3.6-.9 1.2-1.7 1.7l-.3.2c-.6.4-1 .8-1.2 1.2-.2.4-.3.8-.3 1.4v.5h-2zm2.5 3.4c0 .4-.1.8-.4 1-.3.3-.6.4-1.1.4-.4 0-.8-.1-1.1-.4-.3-.3-.4-.6-.4-1s.1-.8.4-1c.3-.3.6-.4 1.1-.4.4 0 .8.1 1.1.4.3.3.4.6.4 1z"/>
</svg>