<svg 
    xmlns="http://www.w3.org/2000/svg" viewBox="0 0 36 36">
    <path d="M30.267 8.444H5.733c-.604 0-1.095.491-1.095 1.095v3.905c0 .604.491 1.095 1.095 1.095h24.534c.604 0 1.095-.491 1.095-1.095V9.539c0-.604-.491-1.095-1.095-1.095zM8.949 11.942c0 .198-.162.36-.36.36h-.9a.361.361 0 0 1-.36-.36v-.9c0-.198.162-.36.36-.36h.899c.198 0 .36.162.36.36v.9zm19.194.299h-7.451a.75.75 0 0 1 0-1.5h7.451a.75.75 0 0 1 0 1.5zm2.124 4.124H5.733c-.604 0-1.095.491-1.095 1.095v3.905c0 .604.491 1.095 1.095 1.095h24.534c.604 0 1.095-.491 1.095-1.095V17.46c0-.603-.491-1.095-1.095-1.095zM8.949 19.863c0 .198-.162.36-.36.36h-.9a.361.361 0 0 1-.36-.36v-.9c0-.198.162-.36.36-.36h.899c.198 0 .36.162.36.36v.9zm19.194.3h-7.451a.75.75 0 0 1 0-1.5h7.451a.75.75 0 0 1 0 1.5zm2.124 4.122H5.733c-.604 0-1.095.491-1.095 1.095v3.905c0 .604.491 1.095 1.095 1.095h24.534c.604 0 1.095-.491 1.095-1.095V25.38c0-.603-.491-1.095-1.095-1.095zM8.949 27.783c0 .198-.162.36-.36.36h-.9a.361.361 0 0 1-.36-.36v-.9c0-.198.162-.36.36-.36h.899c.198 0 .36.162.36.36v.9zm19.194.3h-7.451a.75.75 0 0 1 0-1.5h7.451a.75.75 0 0 1 0 1.5z"/>
</svg>