<svg
    xmlns="http://www.w3.org/2000/svg" viewBox="0 0 36 36">
    <defs>
        <style>.cls-1{fill:none;}</style>
    </defs>
    <title>Desk Phone</title>
    <g id="Layer_2" data-name="Layer 2">
        <g id="Icons">
            <rect class="cls-1" width="36" height="36"/>
            <path d="M5.77,15.51a.76.76,0,0,0,.57.78.77.77,0,0,1,.56.75v5.73a1.14,1.14,0,0,1-.87,1,12.39,12.39,0,0,1-5.16,0,1.14,1.14,0,0,1-.87-1V17c0-.44.22-.59.56-.75a.76.76,0,0,0,.57-.78h0V8.57a.76.76,0,0,0-.57-.78A.77.77,0,0,1,0,7V1.3a1.14,1.14,0,0,1,.87-1A12.38,12.38,0,0,1,6,.27a1.14,1.14,0,0,1,.87,1V7c0,.44-.22.59-.57.75a.76.76,0,0,0-.57.78v6.94ZM28.21,3.41V25.7a1.5,1.5,0,0,1-1.5,1.5H4.61a1.5,1.5,0,0,1-1.5-1.5v-.13A13.89,13.89,0,0,0,6,25.27,2.62,2.62,0,0,0,8,22.77V17a2.22,2.22,0,0,0-1.14-2V9A2.16,2.16,0,0,0,8,7V1.91H26.71A1.5,1.5,0,0,1,28.21,3.41ZM14.08,21.57a.33.33,0,0,0-.32-.32H11a.32.32,0,0,0-.32.32v.81a.32.32,0,0,0,.32.32h2.76a.33.33,0,0,0,.32-.32Zm0-3.21a.33.33,0,0,0-.32-.32H11a.32.32,0,0,0-.32.32v.81a.32.32,0,0,0,.32.32h2.76a.32.32,0,0,0,.32-.32Zm0-3.21a.33.33,0,0,0-.32-.32H11a.32.32,0,0,0-.32.32V16a.32.32,0,0,0,.32.32h2.76a.33.33,0,0,0,.32-.32Zm5.17,6.42a.33.33,0,0,0-.32-.32H16.16a.32.32,0,0,0-.32.32v.81a.32.32,0,0,0,.32.32h2.77a.33.33,0,0,0,.32-.32Zm0-3.21a.33.33,0,0,0-.32-.32H16.16a.32.32,0,0,0-.32.32v.81a.32.32,0,0,0,.32.32h2.77a.33.33,0,0,0,.32-.32Zm0-3.21a.33.33,0,0,0-.32-.32H16.16a.32.32,0,0,0-.32.32V16a.32.32,0,0,0,.32.32h2.77a.33.33,0,0,0,.32-.32Zm5.17,6.42a.33.33,0,0,0-.32-.32H21.33a.32.32,0,0,0-.32.32v.81a.32.32,0,0,0,.32.32h2.76a.33.33,0,0,0,.32-.32Zm0-3.21a.33.33,0,0,0-.32-.32H21.33a.32.32,0,0,0-.32.32v.81a.32.32,0,0,0,.32.32h2.76a.32.32,0,0,0,.32-.32Zm0-3.21a.33.33,0,0,0-.32-.32H21.33a.32.32,0,0,0-.32.32V16a.32.32,0,0,0,.32.32h2.76a.33.33,0,0,0,.32-.32Zm0-8.09a.93.93,0,0,0-.92-.93H11.58a.93.93,0,0,0-.92.93v3.3a.93.93,0,0,0,.92.93H23.5a.93.93,0,0,0,.92-.93Z" transform="translate(3.89 4.4)"/>
        </g>
    </g>
</svg>