<?xml version="1.0" encoding="UTF-8" standalone="no"?>
<svg
   xmlns:dc="http://purl.org/dc/elements/1.1/"
   xmlns:cc="http://creativecommons.org/ns#"
   xmlns:rdf="http://www.w3.org/1999/02/22-rdf-syntax-ns#"
   xmlns:svg="http://www.w3.org/2000/svg"
   xmlns="http://www.w3.org/2000/svg"
   viewBox="0 0 26 36"
   xml:space="preserve"
   version="1.1"
   id="svg3336"><metadata
     id="metadata3342"><rdf:RDF><cc:Work
         rdf:about=""><dc:format>image/svg+xml</dc:format><dc:type
           rdf:resource="http://purl.org/dc/dcmitype/StillImage" /><dc:title></dc:title></cc:Work></rdf:RDF></metadata><defs
     id="defs3340"></defs><g
     transform="matrix(1.25,0,0,-1.25,0,36)"
     id="g3344"><g
       id="g4086"><g
         clip-path="url(#clipPath4090)"
         id="g4088"><g
           transform="translate(12.014794,12.155774)"
           id="g4094"><path
             id="path4096"
             d="M 0,0 C 0,0 -0.509,-1.521 -0.544,-1.625 -0.579,-1.728 -0.706,-2.02 -0.279,-2.02 l 1.06,0 C 1.174,-2.02 1,-2.339 1,-2.339 c 0,0 -3.672,-5.282 -3.78,-5.44 -0.108,-0.158 -0.341,-0.114 -0.292,0.09 0.027,0.111 0.776,3.379 0.776,3.379 0,0 0.127,0.392 -0.333,0.401 -0.348,0.007 -0.67,0 -1.188,0 -0.484,0 -0.273,0.358 -0.273,0.358 L -2.549,0 c 0,0 0.092,0.264 0.414,0.264 l 1.833,0 C 0.079,0.264 0,0 0,0 m 6.452,-9.208 c 0,-0.198 -0.162,-0.36 -0.36,-0.36 l -15.282,0 c -0.198,0 -0.36,0.162 -0.36,0.36 l 0,11.074 c 0,0.198 0.162,0.36 0.36,0.36 l 15.282,0 c 0.198,0 0.36,-0.162 0.36,-0.36 l 0,-11.074 z m 2.313,19.407 c 0,0 0.009,1.005 -0.541,1.533 l -3.74,3.784 c -0.435,0.499 -0.88,0.708 -1.528,0.766 l -13.674,-0.009 c -0.628,0 -1.137,-0.559 -1.137,-1.25 l 0,-2.718 c -0.004,-0.573 0.321,-0.651 0.584,-0.659 l 0.53,-0.007 c 0,0 0.743,0.031 0.743,-0.728 l 0,-3.173 c -0.019,-0.851 -0.743,-0.789 -0.743,-0.789 l -0.502,0.004 c -0.542,-0.024 -0.591,-0.438 -0.612,-0.747 -0.019,-0.31 0.002,-16.899 0.002,-16.899 0,-0.691 0.51,-1.249 1.135,-1.249 l 18.347,0 c 0.629,0 1.137,0.558 1.137,1.249 L 8.765,10.199 Z" /></g></g></g></g></svg>