<?xml version="1.0" encoding="UTF-8" standalone="no"?>
<svg
   xmlns:dc="http://purl.org/dc/elements/1.1/"
   xmlns:cc="http://creativecommons.org/ns#"
   xmlns:rdf="http://www.w3.org/1999/02/22-rdf-syntax-ns#"
   xmlns:svg="http://www.w3.org/2000/svg"
   xmlns="http://www.w3.org/2000/svg"
   xmlns:xlink="http://www.w3.org/1999/xlink"
   id="svg3336"
   version="1.1"
   viewBox="0 0 125 93.75">
  <metadata
     id="metadata3342">
    <rdf:RDF>
      <cc:Work
         rdf:about="">
        <dc:format>image/svg+xml</dc:format>
        <dc:type
           rdf:resource="http://purl.org/dc/dcmitype/StillImage" />
        <dc:title></dc:title>
      </cc:Work>
    </rdf:RDF>
  </metadata>
  <defs
     id="defs3340" />
  <path
     id="path3334"
     d="m 35,74.375 0,-13.125 -14.398468,0 -14.3984683,0 L 6.5390319,32.8125 6.875,4.375 47.1875,4.0451836 87.5,3.7153673 l 0,13.7673167 0,13.767316 14.375,0 14.375,0 0,28.125 0,28.125 -40.625,0 -40.625,0 0,-13.125 z m 76.25,-15 0,-21.875 -35.625,0 -35.625,0 0,21.875 0,21.875 35.625,0 35.625,0 0,-21.875 z M 35,43.125 35,31.25 l 24.375,0 24.375,0 0,-11.25 0,-11.25 -36.25,0 -36.25,0 0,23.125 0,23.125 11.875,0 L 35,55 35,43.125 Z"
     style="fill:#000000" />
</svg>
