<?xml version="1.0" encoding="UTF-8" standalone="no"?>
<svg
   xmlns:dc="http://purl.org/dc/elements/1.1/"
   xmlns:cc="http://creativecommons.org/ns#"
   xmlns:rdf="http://www.w3.org/1999/02/22-rdf-syntax-ns#"
   xmlns:svg="http://www.w3.org/2000/svg"
   xmlns="http://www.w3.org/2000/svg"
   id="svg4639"
   version="1.1"
   xml:space="preserve"
   viewBox="0 0 36 36"><metadata
     id="metadata4645"><rdf:RDF><cc:Work
         rdf:about=""><dc:format>image/svg+xml</dc:format><dc:type
           rdf:resource="http://purl.org/dc/dcmitype/StillImage" /><dc:title></dc:title></cc:Work></rdf:RDF></metadata><defs
     id="defs4643" /><g
     id="g4647"
     transform="matrix(1.25,0,0,-1.25,0,36)"><g
       id="g5321"><g
         id="g5323"
         clip-path="url(#clipPath5325)"><g
           id="g5329"
           transform="translate(12.267717,13.550338)"><path
             d="M 0,0 C 0.177,1.178 1.075,2.017 2.238,2.017 3.416,2.017 4.167,1.222 4.24,0 L 0,0 Z m -1.369,-0.633 c 0,-2.209 1.501,-3.696 3.739,-3.696 1.929,0 3.019,0.987 3.019,1.605 0,0.619 -0.737,0.751 -0.766,0.722 C 4.255,-2.635 3.636,-3.18 2.4,-3.18 c -1.34,0 -2.312,0.883 -2.415,2.194 l 5.227,0 c 0.339,0 0.442,0.117 0.442,0.426 l 0,0.118 c 0,2.121 -1.355,3.564 -3.401,3.564 -2.091,0 -3.622,-1.605 -3.622,-3.755 m 5.263,-6.588 c -0.516,-0.37 -1.135,-0.571 -1.777,-0.571 -0.649,0 -1.269,0.201 -1.797,0.581 l -12.25,8.518 0,-11.253 c 0,-0.99 0.81,-1.8 1.8,-1.8 l 24.487,0 c 0.99,0 1.857,0.81 1.857,1.8 l 0,11.147 -12.32,-8.422 z m -15.824,10.355 0,0.762 c 0,0.78 0.403,1.469 1.004,1.873 L 0.82,13.874 c 0.372,0.267 0.826,0.429 1.319,0.429 l 0.007,0 c 0.494,0 0.948,-0.162 1.319,-0.429 L 15.211,5.769 c 0.601,-0.404 1.003,-1.093 1.003,-1.873 l 0,-0.879 -5.097,-3.484 0,5.027 c 0,0.438 -0.359,0.796 -0.796,0.796 l -16.409,0 c -0.437,0 -0.795,-0.358 -0.795,-0.796 l 0,-4.935 -5.047,3.509 z"
             id="path5331" /></g></g></g></g></svg>