<svg id="Layer_1" data-name="Layer 1" xmlns="http://www.w3.org/2000/svg" viewBox="0 0 44 44">
    <defs>
        <style>.cls-1{fill:none;}</style>
    </defs>
    <title>Export</title>
    <rect style="fill:none" class="cls-1" width="24" height="24"/>
  <path
     class="st1"
     d="M 36.139062,38 6.8660232,38 C 5.0794058,38 3.7050847,36.695311 3.7050847,34.999215 l 0,-13.829704 c 0,-0.782813 0.5497285,-1.304689 1.3743211,-1.304689 0.8245926,0 1.3743211,0.521876 1.3743211,1.304689 l 0,13.960173 c 0,0.130469 0.1374321,0.391407 0.4122963,0.391407 l 29.2730388,0 c 0.137432,0 0.412296,-0.130469 0.412296,-0.391407 l 0,-13.960173 c 0,-0.782813 0.549728,-1.304689 1.374321,-1.304689 0.824593,0 1.374321,0.521876 1.374321,1.304689 l 0,13.960173 C 39.3,36.695311 37.925679,38 36.139062,38 Z m -24.462915,-21.266431 4.535259,0 0,10.307043 c 0,0.521876 0.412297,0.782813 0.824593,0.782813 l 8.658223,0 c 0.549728,0 0.824592,-0.391406 0.824592,-0.782813 l 0,-10.307043 4.53526,0 c 1.099457,0 1.374321,-0.652345 0.68716,-1.435158 l -9.207951,-10.176575 0,0 -0.137432,-0.2609378 c -0.549728,-0.5218756 -1.374321,-0.5218756 -1.924049,0 l -0.274865,0.3914068 0,0 -9.207951,10.176575 c -0.68716,0.782813 -0.412296,1.304689 0.687161,1.304689 z"
     id="path3805"
     />
</svg>