<svg xmlns="http://www.w3.org/2000/svg" viewBox="0 0 36 36">
    <defs><style>.cls-1{fill:none;}</style></defs>
    <title>Feedback</title>
    <g id="Layer_2" data-name="Layer 2">
        <g id="Icons"><rect class="cls-1" width="36" height="36"/>
            <path d="M12.51,10.3a1.33,1.33,0,0,1-1.33,1.33h-.07a1.33,1.33,0,0,1-.64,2.49H9.83a1.33,1.33,0,0,1-.64,2.49H3.46C1.2,16.65,0,14.14,0,11.72A6.08,6.08,0,0,1,2.2,7.15a28.76,28.76,0,0,0,3-3.4C6.35,2.17,5.73.27,6.69,0c.37-.1,1.64.61,1.78,2.1S7.22,5.91,7,6.41l0,.06h4.23a1.33,1.33,0,0,1,.45,2.58A1.33,1.33,0,0,1,12.51,10.3Zm4.12-2.23a1.33,1.33,0,0,0,.45,2.58h4.23l0,.06c-.24.5-1.65,2.79-1.5,4.31s1.42,2.2,1.78,2.1c1-.26.34-2.16,1.49-3.74a28.75,28.75,0,0,1,3-3.4,6.08,6.08,0,0,0,2.2-4.57C28.27,3,27.07.48,24.81.5H19.08A1.33,1.33,0,0,0,18.44,3h-.65a1.33,1.33,0,0,0-.64,2.5h-.07a1.33,1.33,0,0,0-.45,2.58Z" transform="translate(3.87 9.44)"/>
        </g>
    </g>
</svg>