<svg id="Layer_1" data-name="Layer 1" xmlns="http://www.w3.org/2000/svg" viewBox="0 0 36 36"><defs><style>.cls-1{fill:none;}</style></defs><title>file-text</title><rect style="fill:none" class="cls-1" width="36" height="36"/><path d="M24.29,14.52H11.71a0.75,0.75,0,0,1,0-1.5H24.29A0.75,0.75,0,0,1,24.29,14.52Zm0.75,3a0.75,0.75,0,0,0-.75-0.75H11.71a0.75,0.75,0,1,0,0,1.5H24.29A0.75,0.75,0,0,0,25,17.56Zm0,3.8a0.75,0.75,0,0,0-.75-0.75H11.71a0.75,0.75,0,1,0,0,1.5H24.29A0.75,0.75,0,0,0,25,21.36ZM29.63,9.64V30.46a1.79,1.79,0,0,1-1.81,1.76H8.18a1.79,1.79,0,0,1-1.81-1.76V5.54A1.79,1.79,0,0,1,8.18,3.78H23.77a2.35,2.35,0,0,1,1.49.62L29,8.14A2.35,2.35,0,0,1,29.63,9.64Zm-2.37.66H23.49a0.38,0.38,0,0,1-.37-0.37V6.15H9.25a0.5,0.5,0,0,0-.5.5V29.35a0.5,0.5,0,0,0,.5.5h17.5a0.5,0.5,0,0,0,.5-0.5V10.29Z"/></svg>