<svg id="Layer_1" data-name="Layer 1" xmlns="http://www.w3.org/2000/svg" viewBox="0 0 44 44">
    <defs>
        <style>.cls-1{fill:none;}</style>
    </defs>
    <title>Filter</title>
    <rect style="fill:none" class="cls-1" width="24" height="24"/>
  <path
     class="st1"
     d="m 6.8467021,10.859077 30.0811719,0 c 0.534777,0 0.668471,0.272254 0.267389,0.680635 L 25.69757,24.063392 c -0.401083,0.408381 -0.66847,1.089015 -0.66847,1.633523 l 0,11.979172 c 0,0.680635 -0.267389,0.952888 -0.802165,1.225142 l -4.5456,1.769651 c -0.401082,0.136127 -0.935858,-0.272254 -0.935858,-0.680635 l 0,-14.29333 c 0,-0.544508 -0.267388,-1.36127 -0.66847,-1.633523 L 6.5793139,11.675839 C 6.1782315,11.267458 6.3119257,10.859077 6.8467021,10.859077 Z M 38.532203,5.8223802 c 0,-0.5445079 -0.401082,-0.9528887 -0.935858,-0.9528887 l -31.4181135,0 c -0.5347763,0 -0.9358586,0.4083808 -0.9358586,0.9528887 l 0,2.0419043 c 0,0.5445078 0.4010823,0.9528886 0.9358586,0.9528886 l 31.4181135,0 c 0.534776,0 0.935858,-0.4083808 0.935858,-0.9528886 l 0,-2.0419043 z"
     id="path4170"
     />
</svg>