<svg xmlns="http://www.w3.org/2000/svg" viewBox="0 0 36 36">
    <path d="M33 27a6 6 0 0 1-6 6 5.96 5.96 0 0 1-3.247-.96l-.131-.094 2.092-2.093a3.11 3.11 0 0 0 3.472-.641 3.131 3.131 0 0 0 .826-2.939c-.034-.142-.205-.247-.393-.059l-1.715 1.714a1.284 1.284 0 0 1-1.817.005 1.286 1.286 0 0 1 .004-1.818l1.75-1.75c.179-.179.027-.327-.088-.355a3.11 3.11 0 0 0-2.945.825 3.108 3.108 0 0 0-.642 3.471l-2.097 2.097-.096-.131A6 6 0 1 1 33 27zm-6-7.5c1.067 0 2.08.227 3 .631v-2.768H12.75v4.875h8.46A7.488 7.488 0 0 1 27 19.5zm3-8.512H12.75v4.875H30v-4.875zM6 25.613v1.56c0 .792.648 1.44 1.44 1.44h3.81v-4.875H6v1.875zm24-19.56c0-.792-.648-1.44-1.44-1.44H12.75v4.875H30V6.053zM6 22.238h5.25v-4.875H6v4.875zM19.5 27c0-1.17.277-2.274.757-3.262H12.75v4.875h6.926A7.436 7.436 0 0 1 19.5 27zM7.44 4.613c-.792 0-1.44.648-1.44 1.44v3.435h5.25V4.613H7.44zM6 15.863h5.25v-4.875H6v4.875z"/>
</svg>