<?xml version="1.0" encoding="UTF-8" standalone="no"?>
<svg
   xmlns:dc="http://purl.org/dc/elements/1.1/"
   xmlns:cc="http://creativecommons.org/ns#"
   xmlns:rdf="http://www.w3.org/1999/02/22-rdf-syntax-ns#"
   xmlns:svg="http://www.w3.org/2000/svg"
   xmlns="http://www.w3.org/2000/svg"
   viewBox="0 0 38 38"
   xml:space="preserve"
   version="1.1"
   id="svg3336"><metadata
     id="metadata3342"><rdf:RDF><cc:Work
         rdf:about=""><dc:format>image/svg+xml</dc:format><dc:type
           rdf:resource="http://purl.org/dc/dcmitype/StillImage" /><dc:title></dc:title></cc:Work></rdf:RDF></metadata><defs
     id="defs3340"></defs><g
     transform="matrix(1.25,0,0,-1.25,0,38)"
     id="g3344"><g
       id="g4066"><g
         clip-path="url(#clipPath4070)"
         id="g4068"><g
           transform="translate(120.44,607.3506)"
           id="g4082" /><g
           transform="translate(133.3218,532.7051)"
           id="g4086" /><g
           transform="translate(16.50533,20.994289)"
           id="g4090"><path
             id="path4092"
             d="m 0,0 c 0.969,0 1.54,0.72 1.54,1.614 0,0.696 -0.522,1.118 -1.465,1.118 -0.969,0 -1.54,-0.72 -1.54,-1.59 C -1.465,0.447 -0.944,0 0,0 m -2.012,-14.729 c 1.54,0 1.59,1.168 1.54,1.168 -1.118,0.074 -1.341,0.546 -1.068,1.788 l 1.938,9.215 -2.435,0 -1.962,-9.19 c -0.397,-1.838 0.174,-2.981 1.987,-2.981 m 15.799,8.792 c 0,-8.284 -6.715,-15 -14.999,-15 -8.285,0 -15,6.716 -15,15 0,8.284 6.715,15 15,15 8.284,0 14.999,-6.716 14.999,-15" /></g></g></g></g></svg>