<svg xmlns="http://www.w3.org/2000/svg" viewBox="0 0 36 36">
    <path d="M20.8 16.9c-.6.7-1.6.8-2.3.2-1.2-1-2.9-.9-4 .2L8 23.8c-.6.6-.9 1.3-.9 2.1s.3 1.6.9 2.1c1.2 1.2 3.1 1.2 4.3 0l3.6-3.6c.6-.6 1.7-.6 2.4 0s.6 1.7 0 2.4l-3.6 3.6c-1.2 1.2-2.9 1.9-4.5 1.9s-3.2-.6-4.5-1.9c-1.2-1.2-1.9-2.8-1.9-4.5 0-1.7.7-3.3 1.9-4.5L12 15c2.3-2.3 6-2.5 8.5-.4.8.6.9 1.6.3 2.3zm9.6-11.3c-2.5-2.5-6.5-2.5-9 0l-3.5 3.5c-.6.7-.6 1.7 0 2.3.4.4 1.1.6 1.6.4.1 0 .1 0 .2-.1 0 0 .1 0 .1-.1 0 0 .1 0 .1-.1.1-.1.2-.1.2-.2L23.8 8C25 6.8 26.9 6.8 28 8c1.2 1.2 1.2 3.1 0 4.3l-6.4 6.4c-1.1 1.1-2.9 1.2-4.1.2-.7-.6-1.8-.5-2.3.2-.6.7-.5 1.8.2 2.3 1.2 1 2.6 1.5 4.1 1.5 1.6 0 3.3-.6 4.5-1.8l6.4-6.4c2.5-2.6 2.5-6.6 0-9.1z"/>
</svg>