<svg id="Layer_1" data-name="Layer 1" xmlns="http://www.w3.org/2000/svg" viewBox="0 0 36 36">
    <defs>
        <style>.cls-1{fill:none;}</style>
    </defs>
    <title>lock</title>
    <rect style="fill:none" class="cls-1" width="36" height="36"/>
    <path d="M28.72,19.09a1.89,1.89,0,0,0-1.92-1.85H26.41V11.87A8.27,8.27,0,0,0,18,3.75a8.27,8.27,0,0,0-8.4,8.12v5.37H9.19a1.89,1.89,0,0,0-1.92,1.85h0v11.1h0A1.89,1.89,0,0,0,9.19,32H26.8a1.89,1.89,0,0,0,1.92-1.85h0V19.09ZM13.11,11.87A4.77,4.77,0,0,1,18,7.25a4.77,4.77,0,0,1,4.9,4.62v5.37h-9.8V11.87Z"/>
</svg>