<svg
    xmlns="http://www.w3.org/2000/svg" viewBox="0 0 36 36">
    <defs>
        <style>.cls-1{fill:none;}</style>
    </defs>
    <title>Mobile</title>
    <g id="Layer_2" data-name="Layer 2">
        <g id="Icons">
            <rect class="cls-1" width="36" height="36"/>
            <path d="M14.87.17C13.18,0,9.66,0,9,0H8.74c-.69,0-4.21,0-5.9.17A2.76,2.76,0,0,0,0,3.14v24.4a2.76,2.76,0,0,0,2.84,3c1.69.16,5.22.17,5.91.17H9c.69,0,4.2,0,5.89-.17a2.76,2.76,0,0,0,2.84-3V3.14A2.76,2.76,0,0,0,14.87.17ZM10.37,28.58h-3a1.09,1.09,0,0,1,0-2.17h3a1.09,1.09,0,0,1,0,2.17Zm5.35-4.75a.72.72,0,0,1-.72.72H2.72A.72.72,0,0,1,2,23.82V5a.72.72,0,0,1,.72-.72H15a.72.72,0,0,1,.72.72Z" transform="translate(9.14 2.54)"/>
        </g>
    </g>
</svg>