<?xml version="1.0" encoding="UTF-8" standalone="no"?>
<svg
   xmlns:dc="http://purl.org/dc/elements/1.1/"
   xmlns:cc="http://creativecommons.org/ns#"
   xmlns:rdf="http://www.w3.org/1999/02/22-rdf-syntax-ns#"
   xmlns:svg="http://www.w3.org/2000/svg"
   xmlns="http://www.w3.org/2000/svg"
   viewBox="0 0 36 36"
   xml:space="preserve"
   version="1.1"
   id="svg3420"><metadata
     id="metadata3426"><rdf:RDF><cc:Work
         rdf:about=""><dc:format>image/svg+xml</dc:format><dc:type
           rdf:resource="http://purl.org/dc/dcmitype/StillImage" /><dc:title></dc:title></cc:Work></rdf:RDF></metadata><defs
     id="defs3424"></defs><g
     transform="matrix(1.25,0,0,-1.25,0,36)"
     id="g3428"><g
       transform="translate(-567.81855,-525.7402)"
       id="g4342"><g
         clip-path="url(#clipPath4346)"
         id="g4344"><g
           transform="translate(594.4718,547.2661)"
           id="g4350"><path
             id="path4352"
             d="m 0,0 -0.661,-0.661 -5.034,5.035 0.661,0.661 c 0.42,0.42 0.974,0.645 1.605,0.631 0.622,-0.014 1.21,-0.267 1.656,-0.714 l 1.689,-1.69 C 0.839,2.34 0.876,0.876 0,0 m -1.855,-1.855 -14.046,-14.046 c -0.231,-0.23 -0.696,-0.543 -0.997,-0.669 l -4.596,-1.927 -2.039,2.037 1.929,4.598 c 0.055,0.132 0.15,0.297 0.255,0.46 1.031,-0.056 2.227,-0.685 3.217,-1.677 0.415,-0.413 0.766,-0.863 1.045,-1.337 0.07,-0.119 0.195,-0.185 0.324,-0.185 0.065,0 0.13,0.017 0.19,0.052 0.179,0.105 0.239,0.335 0.134,0.514 -0.311,0.529 -0.702,1.03 -1.161,1.488 -0.976,0.977 -2.118,1.608 -3.196,1.821 L -6.89,3.18 l 0.663,0.663 5.035,-5.035 -0.663,-0.663 z m -23.15,-18.115 1.159,2.762 1.603,-1.603 -2.762,-1.159 z M 0.448,3.793 -1.241,5.483 C -1.825,6.068 -2.597,6.399 -3.412,6.417 -4.227,6.432 -4.999,6.132 -5.565,5.566 L -6.491,4.641 C -6.491,4.64 -6.492,4.64 -6.492,4.64 -6.493,4.639 -6.493,4.639 -6.493,4.638 L -7.421,3.711 -21.468,-10.336 c -0.105,-0.105 -0.216,-0.244 -0.326,-0.392 -0.053,-0.043 -0.095,-0.097 -0.118,-0.163 -0.158,-0.231 -0.299,-0.476 -0.385,-0.68 l -3.491,-8.323 c -0.187,-0.446 -0.007,-0.694 0.079,-0.78 0.058,-0.058 0.192,-0.161 0.412,-0.161 0.103,0 0.225,0.023 0.367,0.082 l 8.323,3.491 c 0.393,0.164 0.936,0.529 1.237,0.83 l 14.046,14.046 1.855,1.855 C 1.7,0.638 1.662,2.578 0.448,3.793" /></g></g></g></g></svg>