<?xml version="1.0" encoding="UTF-8" standalone="no"?>
<svg
   xmlns:dc="http://purl.org/dc/elements/1.1/"
   xmlns:cc="http://creativecommons.org/ns#"
   xmlns:rdf="http://www.w3.org/1999/02/22-rdf-syntax-ns#"
   xmlns:svg="http://www.w3.org/2000/svg"
   xmlns="http://www.w3.org/2000/svg"
   id="svg3380"
   version="1.1"
   viewBox="0 0 66 66">
  <metadata
     id="metadata3386">
    <rdf:RDF>
      <cc:Work
         rdf:about="">
        <dc:format>image/svg+xml</dc:format>
        <dc:type
           rdf:resource="http://purl.org/dc/dcmitype/StillImage" />
        <dc:title></dc:title>
      </cc:Work>
    </rdf:RDF>
  </metadata>
  <defs
     id="defs3384" />
  <path
     d="m 0.07436583,33.160094 0,-33.12500121 33.12499917,0 33.125,0 0,33.12500121 0,33.125 -33.125,0 -33.12499917,0 0,-33.125 z m 62.49999917,0 0,-29.3750012 -29.375,0 -29.3749991,0 0,29.3750012 0,29.375 29.3749991,0 29.375,0 0,-29.375 z M 8.8243659,49.800359 c 0,-6.05384 0.353004,-6.799019 5.3124991,-11.214522 2.921875,-2.601384 6.059607,-4.745753 6.97274,-4.765266 0.913131,-0.01951 3.749709,2.205275 6.303504,4.943974 5.551432,5.953372 10.670172,7.364379 16.249422,4.479236 3.139879,-1.623695 4.500101,-1.742033 6.735623,-0.586001 5.293261,2.73725 7.176211,5.215778 7.176211,9.446049 l 0,4.181265 -24.375,0 -24.3749991,0 0,-6.484735 z"
     id="path3390" />
</svg>
