<svg
    xmlns="http://www.w3.org/2000/svg" viewBox="0 0 36.06 36.06">
    <defs>
        <style>.cls-1{fill:none;}</style>
    </defs>
    <title>Pie Chart</title>
    <g id="Layer_2" data-name="Layer 2">
        <g id="Icons">
            <rect class="cls-1" width="36.06" height="36.06"/>
            <path d="M12.43.18V11.1c0,.14-.11.19-.24.11l-.56-.31L2.85,6.09l-.38-.21-.08,0-.08,0a1.12,1.12,0,0,1,.15-.34A13.21,13.21,0,0,1,12,0a1.15,1.15,0,0,1,.41.06Zm-1.53,12-.23-.13-.51-.28L2,7.36l-.37-.21-.07,0-.07,0a1.24,1.24,0,0,0-.23.29A13.13,13.13,0,0,0,0,12.11a1,1,0,0,0,0,.32h10.8C11.1,12.43,11.13,12.32,10.9,12.2ZM14.28,0a1.05,1.05,0,0,0-.35.05V12.82a2,2,0,0,1-.15.69l-.27.27a2,2,0,0,1-.69.15H.05a1,1,0,0,0,0,.35A13.22,13.22,0,1,0,14.28,0Z" transform="translate(4.83 4.83)"/>
        </g>
    </g>
</svg>