<svg
    xmlns="http://www.w3.org/2000/svg" viewBox="0 0 36 36">
    <defs>
        <style>.cls-1{fill:none;}</style>
    </defs>
    <title>Pinpoint</title>
    <g id="Layer_2" data-name="Layer 2">
        <g id="Icons">
            <rect class="cls-1" width="36" height="36"/>
            <path d="M11.24,0A11.15,11.15,0,0,0,3.82,19.56a17.12,17.12,0,0,1,2.55,3h0l4.25,7.14a.68.68,0,0,0,.62.39.69.69,0,0,0,.62-.4l4.24-7.15a17.25,17.25,0,0,1,2.55-3A11.15,11.15,0,0,0,11.24,0ZM18,13.7c-.05.13-.11.26-.17.38a7.26,7.26,0,0,1-6.59,4.21h0a7.22,7.22,0,1,1,0-14.44h0a7.3,7.3,0,0,1,2.16.32q.34.11.67.24a7.28,7.28,0,0,1,3.87,3.84A7.15,7.15,0,0,1,18,13.7Z" transform="translate(6.76 2.96)"/>
        </g>
    </g>
</svg>