<?xml version="1.0" encoding="UTF-8" standalone="no"?>
<svg
   xmlns:dc="http://purl.org/dc/elements/1.1/"
   xmlns:cc="http://creativecommons.org/ns#"
   xmlns:rdf="http://www.w3.org/1999/02/22-rdf-syntax-ns#"
   xmlns:svg="http://www.w3.org/2000/svg"
   xmlns="http://www.w3.org/2000/svg"
   viewBox="0 0 29 29"
   xml:space="preserve"
   version="1.1"
   id="svg5928"><metadata
     id="metadata3346"><rdf:RDF><cc:Work
         rdf:about=""><dc:format>image/svg+xml</dc:format><dc:type
           rdf:resource="http://purl.org/dc/dcmitype/StillImage" /><dc:title></dc:title></cc:Work></rdf:RDF></metadata><defs
     id="defs3344" /><g
     transform="matrix(1.25,0,0,-1.25,3.0391752,24.373196)"
     id="g5936"><g
       id="g6458"
       transform="translate(-19.595876,-756.07423)"><g
         clip-path="url(#clipPath6462)"
         id="g6460"><g
           transform="translate(40.240431,764.01609)"
           id="g6470"><path
             id="path6472"
             d="m 0,0 c 0,-1.381 -1.119,-2.5 -2.5,-2.5 l -6.5,0 0,-6.5 c 0,-1.381 -1.119,-2.5 -2.5,-2.5 -1.381,0 -2.5,1.119 -2.5,2.5 l 0,6.5 -6.501,0 c -1.38,0 -2.5,1.119 -2.5,2.5 0,1.381 1.12,2.5 2.5,2.5 l 6.501,0 0,6.5 c 0,1.381 1.119,2.5 2.5,2.5 1.381,0 2.5,-1.119 2.5,-2.5 l 0,-6.5 6.5,0 C -1.119,2.5 0,1.381 0,0" /></g></g></g></g></svg>