<?xml version="1.0" encoding="UTF-8" standalone="no"?>
<svg
   xmlns:dc="http://purl.org/dc/elements/1.1/"
   xmlns:cc="http://creativecommons.org/ns#"
   xmlns:rdf="http://www.w3.org/1999/02/22-rdf-syntax-ns#"
   xmlns:svg="http://www.w3.org/2000/svg"
   xmlns="http://www.w3.org/2000/svg"
   version="1.1"
   viewBox="0 0 35 34"
   data-name="Layer 1"
   id="Layer_1">
  <metadata
     id="metadata3695">
    <rdf:RDF>
      <cc:Work
         rdf:about="">
        <dc:format>image/svg+xml</dc:format>
        <dc:type
           rdf:resource="http://purl.org/dc/dcmitype/StillImage" />
        <dc:title>Refresh</dc:title>
      </cc:Work>
    </rdf:RDF>
  </metadata>
  <defs
     id="defs3684">
    <style
       id="style3686">.cls-1{fill:none;}</style>
  </defs>
  <title
     id="title3688">Refresh</title>
  <rect
     style="fill:none"
     y="-10"
     x="0"
     id="rect3690"
     height="24"
     width="24"
     class="cls-1" />
  <path
     id="path4013"
     d="m 15.921025,31.591855 -0.228225,0.107663 -2.054018,0.753647 -2.396356,0.861311 0,0 -1.141122,0.430655 c -0.3423366,0.107664 -0.5705606,0 -0.4564486,-0.430655 L 10.101304,31.591855 C 6.1073786,29.653906 2.9122383,26.316327 1.4287803,22.225101 -1.4240236,14.257978 2.7981261,5.64487 10.785978,2.307291 c 0.456448,-0.215327 1.027009,-0.430655 1.027009,-0.430655 0.228224,-0.107664 0.456449,0 0.570561,0.215328 l 0.798785,2.368604 c 0.114112,0.215328 0,0.430655 -0.228224,0.538319 0,0 -0.570561,0.215328 -0.912898,0.322992 -6.2761689,2.6915967 -9.5854213,9.582082 -7.3031783,15.826584 1.0270094,3.014587 3.3092527,5.598519 6.2761693,7.105813 l 0.456449,-1.722621 c 0.114112,-0.322992 0.342336,-0.430656 0.684673,-0.107664 l 0.798785,0.86131 0,0 3.309252,3.660571 c 0,0.215327 0,0.538319 -0.342336,0.645983 z M 33.950745,11.997037 C 32.467287,7.9058107 29.386259,4.568232 25.278221,2.630283 L 25.73467,0.907662 C 25.848782,0.58467 25.620558,0.369343 25.278221,0.477007 l -1.141121,0.430655 0,0 -2.396356,0.968974 -2.054018,0.753647 -0.228225,0.107664 C 19.230277,2.845611 19.116165,3.060938 19.344389,3.38393 l 3.309253,3.66057 0,0 0.798785,0.8613107 c 0.228224,0.322992 0.570561,0.215329 0.684673,-0.1076637 l 0.456448,-1.722622 c 2.966916,1.614958 5.135047,4.091227 6.276169,7.105815 2.282243,6.352166 -1.02701,13.134987 -7.303178,15.826583 -0.456449,0.215327 -0.912897,0.322991 -0.912897,0.322991 -0.228225,0.107664 -0.342337,0.322992 -0.228225,0.538319 l 0.798785,2.368605 c 0.114113,0.215327 0.342337,0.322991 0.570561,0.215327 0,0 0.570561,-0.215327 1.02701,-0.430655 7.759626,-3.337579 11.867664,-11.950685 9.128972,-20.025473 z"
     class="st0" />
</svg>
