<?xml version="1.0" encoding="UTF-8" standalone="no"?>
<svg
   xmlns:dc="http://purl.org/dc/elements/1.1/"
   xmlns:cc="http://creativecommons.org/ns#"
   xmlns:rdf="http://www.w3.org/1999/02/22-rdf-syntax-ns#"
   xmlns:svg="http://www.w3.org/2000/svg"
   xmlns="http://www.w3.org/2000/svg"
   version="1.1"
   viewBox="0 0 44 44"
   data-name="Layer 1"
   id="Layer_1">
  <metadata
     id="metadata3456">
    <rdf:RDF>
      <cc:Work
         rdf:about="">
        <dc:format>image/svg+xml</dc:format>
        <dc:type
           rdf:resource="http://purl.org/dc/dcmitype/StillImage" />
        <dc:title>Sign Out</dc:title>
      </cc:Work>
    </rdf:RDF>
  </metadata>
  <defs
     id="defs3445">
    <style
       id="style3447">.cls-1{fill:none;}</style>
  </defs>
  <title
     id="title3449">Export</title>
  <rect
     style="fill:none"
     transform="matrix(0,1,-1,0,0,0)"
     y="-24"
     x="0"
     id="rect3451"
     height="24"
     width="24"
     class="cls-1" />
  <path
     id="path3805"
     d="m 4.7372881,35.871265 0,-29.2730384 c 0,-1.7866174 1.304689,-3.1609385 3.000785,-3.1609385 l 13.8297039,0 c 0.782813,0 1.304689,0.5497285 1.304689,1.3743211 0,0.8245926 -0.521876,1.3743211 -1.304689,1.3743211 l -13.9601729,0 c -0.130469,0 -0.391407,0.1374321 -0.391407,0.4122963 l 0,29.2730384 c 0,0.137432 0.130469,0.412296 0.391407,0.412296 l 13.9601729,0 c 0.782813,0 1.304689,0.549728 1.304689,1.374321 0,0.824593 -0.521876,1.374321 -1.304689,1.374321 l -13.9601729,0 c -1.565627,0 -2.870316,-1.374321 -2.870316,-3.160938 z M 26.003719,11.40835 l 0,4.535259 -10.307043,0 c -0.521876,0 -0.782813,0.412297 -0.782813,0.824593 l 0,8.658223 c 0,0.549728 0.391406,0.824592 0.782813,0.824592 l 10.307043,0 0,4.53526 c 0,1.099457 0.652345,1.374321 1.435158,0.68716 l 10.176575,-9.207951 0,0 0.260938,-0.137432 c 0.521875,-0.549728 0.521875,-1.374321 0,-1.924049 l -0.391407,-0.274865 0,0 -10.176575,-9.207951 c -0.782813,-0.68716 -1.304689,-0.412296 -1.304689,0.687161 z"
     class="st1" />
</svg>
