<svg 
    xmlns="http://www.w3.org/2000/svg" viewBox="0 0 36 36">
    <defs>
        <style>.cls-1{fill:none;}</style>
    </defs>
    <title>Star</title>
    <rect style="fill:none" width="36" height="36"/>
    <path d="M13.38.8c.53-1.07,1.39-1.07,1.92,0l2.84,5.75a4.63,4.63,0,0,0,3.1,2.25l6.35.92c1.18.17,1.44,1,.59,1.82L23.59,16a4.62,4.62,0,0,0-1.18,3.64L23.49,26c.2,1.17-.5,1.68-1.55,1.13l-5.68-3a4.59,4.59,0,0,0-3.83,0l-5.68,3c-1.05.55-1.75,0-1.55-1.13l1.08-6.32A4.61,4.61,0,0,0,5.09,16L.5,11.56c-.85-.83-.58-1.65.59-1.82l6.35-.92a4.62,4.62,0,0,0,3.1-2.25Z" transform="translate(3.66 4.32)"/>
</svg>