<svg id="Layer_1" data-name="Layer 1" xmlns="http://www.w3.org/2000/svg" viewBox="0 0 36 36">
    <defs>
        <style>.cls-1{fill:none;}</style>
    </defs>
    <title>Tachometer</title>
    <rect style="fill:none" class="cls-1" width="24" height="24"/>
<path class="st0" d="M18,5.2c-8.3,0-15,6.7-15,15c0,2.4,0.6,4.7,1.7,6.9c0.5,1,1.6,1.7,2.8,1.7l21.1,0c1.2,0,2.3-0.7,2.8-1.7
	c1.1-2.2,1.7-4.6,1.7-6.9C33,11.9,26.3,5.2,18,5.2z M17.3,7.2c0-0.4,0.3-0.7,0.7-0.7c0.4,0,0.7,0.3,0.7,0.7v2c0,0.4-0.3,0.7-0.7,0.7
	c-0.4,0-0.7-0.3-0.7-0.7V7.2z M6.9,21.5H5c-0.4,0-0.7-0.3-0.7-0.7C4.3,20.4,4.6,20,5,20h1.9c0.4,0,0.7,0.3,0.7,0.7
	C7.6,21.2,7.3,21.5,6.9,21.5z M9,15.3c-0.1,0.2-0.4,0.4-0.6,0.4c-0.1,0-0.3,0-0.4-0.1l-1.6-1c-0.3-0.2-0.5-0.7-0.2-1
	c0.2-0.3,0.7-0.5,1-0.2l1.6,1C9.1,14.5,9.2,15,9,15.3z M12.8,11.3c-0.1,0.1-0.2,0.1-0.4,0.1c-0.3,0-0.5-0.1-0.6-0.4l-0.9-1.7
	c-0.2-0.4-0.1-0.8,0.3-1c0.4-0.2,0.8-0.1,1,0.3l0.9,1.7C13.3,10.7,13.2,11.1,12.8,11.3z M24.5,15.2l-5.1,9.9l0,0
	c-0.3,0.5-0.8,0.8-1.4,0.8c-0.9,0-1.6-0.7-1.6-1.6c0-0.4,0.1-0.8,0.4-1l0,0l6.9-8.6c0.2-0.2,0.5-0.3,0.7-0.1
	C24.6,14.6,24.6,14.9,24.5,15.2z M25.1,9.3L24.2,11c-0.1,0.2-0.4,0.4-0.6,0.4c-0.1,0-0.2,0-0.4-0.1c-0.4-0.2-0.5-0.6-0.3-1l0.9-1.7
	c0.2-0.4,0.6-0.5,1-0.3C25.2,8.6,25.3,9,25.1,9.3z M27.6,15.7c-0.2,0-0.5-0.1-0.6-0.4c-0.2-0.3-0.1-0.8,0.2-1l1.6-1
	c0.3-0.2,0.8-0.1,1,0.2c0.2,0.3,0.1,0.8-0.2,1l-1.6,1C27.9,15.6,27.8,15.7,27.6,15.7z M31,21.5h-1.9c-0.4,0-0.7-0.3-0.7-0.7
	c0-0.4,0.3-0.7,0.7-0.7H31c0.4,0,0.7,0.3,0.7,0.7C31.7,21.2,31.4,21.5,31,21.5z"/>
</svg>