<?xml version="1.0" encoding="UTF-8" standalone="no"?>
<svg
   xmlns:dc="http://purl.org/dc/elements/1.1/"
   xmlns:cc="http://creativecommons.org/ns#"
   xmlns:rdf="http://www.w3.org/1999/02/22-rdf-syntax-ns#"
   xmlns:svg="http://www.w3.org/2000/svg"
   xmlns="http://www.w3.org/2000/svg"
   viewBox="0 0 26 26"
   xml:space="preserve"
   version="1.1"
   id="svg4366"><metadata
     id="metadata4372"><rdf:RDF><cc:Work
         rdf:about=""><dc:format>image/svg+xml</dc:format><dc:type
           rdf:resource="http://purl.org/dc/dcmitype/StillImage" /><dc:title></dc:title></cc:Work></rdf:RDF></metadata><defs
     id="defs4370"><clipPath
       id="clipPath5104"
       clipPathUnits="userSpaceOnUse"><path
         id="path5106"
         d="M 0,792 1224,792 1224,0 0,0 0,792 Z" /></clipPath></defs><g
     transform="matrix(1.25,0,0,-1.25,0,26)"
     id="g4374"><g
       transform="translate(-379.22034,134.23729)"
       id="g5100"><g
         transform="translate(-4.8494846,-153.05567)"
         clip-path="url(#clipPath5104)"
         id="g5102"><g
           transform="translate(403.95109,22.496208)"
           id="g5112"><path
             id="path5114"
             d="m 0,0 c 0.781,-0.781 0.781,-2.047 0,-2.828 -0.391,-0.391 -0.902,-0.586 -1.414,-0.586 -0.512,0 -1.024,0.195 -1.414,0.586 l -6.686,6.686 -6.695,-6.695 c -0.391,-0.391 -0.903,-0.586 -1.414,-0.586 -0.512,0 -1.024,0.195 -1.415,0.586 -0.781,0.781 -0.781,2.047 0,2.828 l 6.695,6.695 -6.686,6.685 c -0.781,0.781 -0.781,2.048 0,2.828 0.781,0.782 2.047,0.782 2.828,0 l 6.687,-6.685 6.686,6.685 c 0.781,0.782 2.047,0.782 2.828,0 0.781,-0.78 0.781,-2.047 0,-2.828 L -6.686,6.686 0,0 Z" /></g></g></g></g></svg>