<svg
    xmlns="http://www.w3.org/2000/svg" viewBox="0 0 36.06 36.06">
    <defs>
        <style>.cls-1{fill:none;}</style>
    </defs>
    <title>Tools</title>
    <g id="Layer_2" data-name="Layer 2">
        <g id="Icons">
            <rect class="cls-1" width="36.06" height="36.06"/>
            <path d="M3,.31l5,3.95a2,2,0,0,1,.44,1.92l4.73,4.73L10.9,13.12,6.17,8.39a2,2,0,0,1-1.92-.44L.35,3a.59.59,0,0,1,0-.75l2-2A.59.59,0,0,1,3,.31ZM28.33,22.42,20,14.09l-1.43,1.43,8,7.88a.76.76,0,0,1-1.07,1.07l-8-7.88-1.06,1.07,8,7.88a.76.76,0,1,1-1.07,1.07l-8-7.88L14.1,20l8.32,8.34a3,3,0,0,0,4.16-.28l1.48-1.48A3,3,0,0,0,28.33,22.42Zm.57-18a5.83,5.83,0,0,1-8,6.69L9.92,22A5.13,5.13,0,1,1,7,19.14L18,8.2a5.83,5.83,0,0,1,6.71-8,.37.37,0,0,1,.16.66L21.56,4.11A2.4,2.4,0,1,0,25,7.5l3.21-3.21C28.51,3.94,28.83,4.13,28.9,4.4Zm-22,17.81a2.42,2.42,0,1,0,0,3.42A2.42,2.42,0,0,0,6.85,22.21Z" transform="translate(3.46 3.54)"/>
        </g>
    </g>
</svg>