<svg id="Layer_1" data-name="Layer 1" xmlns="http://www.w3.org/2000/svg" viewBox="0 0 44 44">
    <defs>
        <style>.cls-1{fill:none;}</style>
    </defs>
    <title>Trash</title>
    <rect style="fill:none" class="cls-1" width="24" height="24"/>
  <path
     class="st1"
     d="m 7.1655447,13.088021 25.7519623,0 0,20.830916 c 0,1.50585 -1.34827,2.760724 -2.966195,2.760724 l -19.9544001,0 c -1.6179238,0 -2.9661942,-1.254874 -2.9661942,-2.760724 l 0,-20.830916 z m 7.4154863,17.944705 0,-12.548745 c 0,-0.50195 -0.40448,-1.0039 -1.078616,-1.0039 -0.539308,0 -1.078616,0.376463 -1.078616,1.0039 l 0,12.548745 c 0,0.50195 0.404481,1.003899 1.078616,1.003899 0.539308,0 1.078616,-0.501949 1.078616,-1.003899 z m 6.471698,0 0,-12.548745 c 0,-0.50195 -0.404481,-1.0039 -1.078617,-1.0039 -0.539308,0 -1.078616,0.376463 -1.078616,1.0039 l 0,12.548745 c 0,0.50195 0.404481,1.003899 1.078616,1.003899 0.539308,0 1.078617,-0.501949 1.078617,-1.003899 z m 6.33687,0 0,-12.548745 c 0,-0.50195 -0.404481,-1.0039 -1.078617,-1.0039 -0.539307,0 -1.078616,0.376463 -1.078616,1.0039 l 0,12.548745 c 0,0.50195 0.404482,1.003899 1.078616,1.003899 0.674136,0 1.078617,-0.501949 1.078617,-1.003899 z m 5.797562,-24.5955404 -7.685141,0 c -0.269654,0 -0.539308,-0.2509749 -0.539308,-0.5019498 0,0 0,-0.5019498 0,-1.0038996 C 24.962712,4.052924 24.15375,3.3 23.075134,3.3 l -6.202043,0 c -1.078616,0 -1.887578,0.752924 -1.887578,1.6313362 0,0.5019498 0,1.0038996 0,1.0038996 0,0.2509749 -0.269654,0.5019498 -0.539309,0.5019498 l -7.6851403,0 c -0.8089621,0 -1.4830972,0.6274372 -1.4830972,1.3803619 l 0,1.8823117 c 0,0.7529248 0.6741351,1.3803628 1.4830972,1.3803628 l 26.5609243,0 c 0.808962,0 1.483097,-0.627438 1.483097,-1.3803628 l 0,-1.8823117 C 34.670257,7.0646228 33.996123,6.4371856 33.187161,6.4371856 Z m 0,0 -7.685141,0 c -0.269654,0 -0.539308,-0.2509749 -0.539308,-0.5019498 0,0 0,-0.5019498 0,-1.0038996 C 24.962712,4.052924 24.15375,3.3 23.075134,3.3 l -6.202043,0 c -1.078616,0 -1.887578,0.752924 -1.887578,1.6313362 0,0.5019498 0,1.0038996 0,1.0038996 0,0.2509749 -0.269654,0.5019498 -0.539309,0.5019498 l -7.6851403,0 c -0.8089621,0 -1.4830972,0.6274372 -1.4830972,1.3803619 l 0,1.8823117 c 0,0.7529248 0.6741351,1.3803628 1.4830972,1.3803628 l 26.5609243,0 c 0.808962,0 1.483097,-0.627438 1.483097,-1.3803628 l 0,-1.8823117 C 34.670257,7.0646228 33.996123,6.4371856 33.187161,6.4371856 Z"
     id="path4070"
      />
</svg>