<?xml version="1.0" encoding="UTF-8" standalone="no"?>
<svg
   xmlns:dc="http://purl.org/dc/elements/1.1/"
   xmlns:cc="http://creativecommons.org/ns#"
   xmlns:rdf="http://www.w3.org/1999/02/22-rdf-syntax-ns#"
   xmlns:svg="http://www.w3.org/2000/svg"
   xmlns="http://www.w3.org/2000/svg"
   id="Layer_1"
   data-name="Layer 1"
   viewBox="0 0 32 32"
   version="1.1">
  <metadata
     id="metadata5337">
    <rdf:RDF>
      <cc:Work
         rdf:about="">
        <dc:format>image/svg+xml</dc:format>
        <dc:type
           rdf:resource="http://purl.org/dc/dcmitype/StillImage" />
        <dc:title>download</dc:title>
      </cc:Work>
    </rdf:RDF>
  </metadata>
  <defs
     id="defs5325">
    <style
       id="style5327">.cls-1{fill:none;}</style>
  </defs>
  <title
     id="title5329">download</title>
  <rect
     transform="scale(-1,-1)"
     class="cls-1"
     width="36"
     height="36"
     id="rect5331"
     x="-36"
     y="-24"
     style="fill:none" />
  <path
     class="st1"
     d="m 31.097938,16.127835 c 0,8.3 -6.7,15 -15,15 -8.2999999,0 -14.9999999,-6.7 -14.9999999,-15 0,-8.2999999 6.7,-14.9999999 14.9999999,-14.9999999 8.3,0 15,6.7 15,14.9999999 z m -22.0999999,0 3.2999999,0 0,7.9 c 0,0.4 0.3,0.6 0.6,0.6 l 6.3,0 c 0.4,0 0.6,-0.3 0.6,-0.6 l 0,-7.9 3.3,0 c 0.8,0 1,-0.5 0.5,-1.1 l -6.7,-7.7999999 0,0 -0.2,-0.3 c -0.4,-0.4 -1,-0.4 -1.4,0 l -0.2,0.3 0,0 -6.6999999,7.7999999 c -0.4,0.6 -0.2,1.1 0.6,1.1 z"
     id="path5333" />
</svg>
