<svg xmlns:dc="http://purl.org/dc/elements/1.1/"
   xmlns:cc="http://creativecommons.org/ns#"
   xmlns:rdf="http://www.w3.org/1999/02/22-rdf-syntax-ns#"
   xmlns:svg="http://www.w3.org/2000/svg"
   xmlns="http://www.w3.org/2000/svg"
   version="1.1"
   viewBox="0 0 38 38"
   data-name="Layer 1"
   id="Layer_1">
<defs><style>.cls-1{fill:none;}</style></defs>
<title>User</title>
<rect style="fill:none" class="cls-1" width="24" height="24"/>
  <path
     class="st1"
     d="m 27.873501,25.627211 c -0.4,-2.3 -1.1,-5.8 -2,-7.5 -0.6,-1.4 -2.5,-2.5 -4.9,-3 0,0 0,0 -0.1,0 0,0 0.1,0 0.1,-0.1 1.2,-0.8 2,-1.9 2.4,-3.3 0.1,-0.5 0.2,-1 0.2,-1.6 0,-3.2000002 -2.6,-5.9000002 -5.9,-5.9000002 -3.2,0 -5.9,2.6 -5.9,5.9000002 0,0.6 0.1,1.1 0.2,1.6 0.4,1.3 1.2,2.4 2.3,3.2 0.1,0 0.1,0.1 0.2,0.1 0,0 -0.1,0 -0.1,0 -2.1,0.5 -3.7,1.4 -4.5,2.5 -0.1,0.2 -0.2,0.4 -0.3,0.5 -0.2,0.5 -0.5,1.1 -0.7,1.8 -0.6,1.8 -1,4.1 -1.3,5.7 -0.1,0.6 -0.2,1.1 -0.3,1.5 0,0.2 -0.1,0.5 -0.1,0.7 0,1.7 1.8,3.2 4.6,4.1 1.7,0.5 3.7,0.9 5.9,0.9 5.8,0 10.4,-2.2 10.4,-4.9 0,-0.2 0,-0.3 -0.1,-0.7 0.1,-0.4 0,-0.9 -0.1,-1.5 z"
     id="path3417"
      />
</svg>
