<?xml version="1.0" encoding="UTF-8" standalone="no"?>
<svg
   xmlns:dc="http://purl.org/dc/elements/1.1/"
   xmlns:cc="http://creativecommons.org/ns#"
   xmlns:rdf="http://www.w3.org/1999/02/22-rdf-syntax-ns#"
   xmlns:svg="http://www.w3.org/2000/svg"
   xmlns="http://www.w3.org/2000/svg"
   viewBox="0 0 36 36"
   xml:space="preserve"
   version="1.1"
   id="svg5217"><metadata
     id="metadata5223"><rdf:RDF><cc:Work
         rdf:about=""><dc:format>image/svg+xml</dc:format><dc:type
           rdf:resource="http://purl.org/dc/dcmitype/StillImage" /><dc:title></dc:title></cc:Work></rdf:RDF></metadata><defs
     id="defs5221"></defs><g
     transform="matrix(1.25,0,0,-1.25,0,36)"
     id="g5225"><g
       id="g5701"><g
         clip-path="url(#clipPath5705)"
         id="g5703"><g
           transform="translate(15.995929,7.154809)"
           id="g5709"><path
             id="path5711"
             d="m 0,0 c 0,0.871 -0.52,1.39 -1.391,1.39 l -0.296,0 c -0.858,0 -1.37,-0.519 -1.37,-1.39 l 0,-0.255 c 0,-0.87 0.499,-1.369 1.37,-1.369 l 0.296,0 C -0.507,-1.624 0,-1.125 0,-0.255 L 0,0 Z m -3.014,11.493 0.638,-6.924 c 0.041,-0.297 0.125,-0.914 0.709,-0.914 l 0.234,0 c 0.607,0 0.71,0.566 0.774,0.927 l 0.614,6.898 c 0.072,0.502 -0.012,0.896 -0.249,1.169 -0.216,0.249 -0.551,0.38 -0.969,0.38 l -0.531,0 c -0.418,0 -0.754,-0.131 -0.969,-0.38 C -3,12.375 -3.084,11.982 -3.014,11.493 m 15.847,-14.09 c 0,-0.834 -0.372,-1.634 -1.017,-2.143 -0.654,-0.521 -1.519,-0.765 -2.498,-0.768 l -4.935,0 -11.823,0 -4.935,0 c -0.979,0.003 -1.844,0.247 -2.498,0.768 -0.645,0.509 -1.017,1.309 -1.017,2.143 0,0.008 -10e-4,0.015 -10e-4,0.023 0,0.025 0.005,0.051 0.006,0.076 0.004,0.181 0.025,0.363 0.059,0.546 0.09,0.484 0.274,0.974 0.554,1.46 l 10.851,18.789 c 0.675,1.189 1.713,1.962 2.888,1.962 l 0.004,0 0.005,0 c 1.175,0 2.213,-0.773 2.888,-1.962 L 12.215,-0.492 c 0.28,-0.486 0.463,-0.976 0.553,-1.46 0.035,-0.183 0.056,-0.365 0.06,-0.546 0.001,-0.025 0.006,-0.051 0.006,-0.076 0,-0.008 -10e-4,-0.015 -10e-4,-0.023" /></g></g></g></g></svg>